<svg width="51" height="38" viewBox="0 0 51 38" fill="none" xmlns="http://www.w3.org/2000/svg">
<path d="M14.1951 3.07897L10.5376 0.292308C4.3992 3.85846 0.358074 9.35385 0 15.5897H5.11535C5.499 10.4256 8.97743 5.90462 14.1951 3.07897ZM45.8847 15.5897H51C50.6163 9.35385 46.5752 3.85846 40.4624 0.292308L36.8305 3.07897C41.997 5.90462 45.501 10.4256 45.8847 15.5897ZM40.846 16.5641C40.846 10.5815 36.6515 5.57333 29.3365 4.2482V2.92308C29.3365 1.30564 27.6229 0 25.5 0C23.3771 0 21.6635 1.30564 21.6635 2.92308V4.2482C14.323 5.57333 10.154 10.5621 10.154 16.5641V26.3077L5.03862 30.2051V32.1538H45.9614V30.2051L40.846 26.3077V16.5641ZM25.5 38C25.8581 38 26.1906 37.9805 26.5231 37.9221C28.1856 37.6492 29.5411 36.7918 30.2061 35.6226C30.4619 35.1549 30.5898 34.6482 30.5898 34.1026H20.3591C20.3847 36.2462 22.661 38 25.5 38Z" fill="#F2B14E"/>
</svg>
